<svg width="674" height="217" viewBox="0 0 674 217" fill="none" xmlns="http://www.w3.org/2000/svg">
<path d="M211.88 95V18H239.93C244.917 18 249.573 18.9533 253.9 20.86C258.227 22.7667 262.003 25.4433 265.23 28.89C268.53 32.2633 271.097 36.2967 272.93 40.99C274.837 45.6833 275.79 50.8533 275.79 56.5C275.79 62.0733 274.837 67.2433 272.93 72.01C271.097 76.7033 268.53 80.7733 265.23 84.22C262.003 87.5933 258.227 90.2333 253.9 92.14C249.573 94.0467 244.917 95 239.93 95H211.88ZM217.38 91.37L215.84 89.5H239.38C243.56 89.5 247.483 88.6933 251.15 87.08C254.89 85.4667 258.153 83.1933 260.94 80.26C263.727 77.2533 265.927 73.77 267.54 69.81C269.153 65.7767 269.96 61.34 269.96 56.5C269.96 51.66 269.153 47.26 267.54 43.3C265.927 39.2667 263.727 35.7833 260.94 32.85C258.153 29.8433 254.89 27.5333 251.15 25.92C247.483 24.3067 243.56 23.5 239.38 23.5H215.51L217.38 21.85V91.37ZM313.218 96.1C307.718 96.1 302.805 94.8533 298.478 92.36C294.225 89.8667 290.888 86.3833 288.468 81.91C286.048 77.4367 284.838 72.23 284.838 66.29C284.838 61.9633 285.498 58.0033 286.818 54.41C288.212 50.8167 290.118 47.7 292.538 45.06C294.958 42.3467 297.855 40.2567 301.228 38.79C304.675 37.3233 308.415 36.59 312.448 36.59C316.408 36.59 319.965 37.25 323.118 38.57C326.345 39.89 329.058 41.7967 331.258 44.29C333.458 46.71 335.108 49.6067 336.208 52.98C337.308 56.28 337.785 59.9467 337.638 63.98L337.528 66.95H288.908V61.89H334.558L332.138 63.87V61.23C332.138 58.2967 331.405 55.3633 329.938 52.43C328.545 49.4967 326.382 47.04 323.448 45.06C320.515 43.08 316.812 42.09 312.338 42.09C308.158 42.09 304.418 43.0067 301.118 44.84C297.892 46.6733 295.325 49.35 293.418 52.87C291.585 56.39 290.668 60.7533 290.668 65.96C290.668 70.9467 291.585 75.31 293.418 79.05C295.252 82.7167 297.892 85.5767 301.338 87.63C304.858 89.61 309.148 90.6 314.208 90.6C316.922 90.6 319.708 90.16 322.568 89.28C325.428 88.4 328.655 86.4933 332.248 83.56L335.108 87.63C333.495 89.17 331.588 90.6 329.388 91.92C327.188 93.1667 324.732 94.1933 322.018 95C319.305 95.7333 316.372 96.1 313.218 96.1ZM367.343 96.1C362.356 96.1 357.919 95.1467 354.033 93.24C350.146 91.26 347.176 88.8767 345.123 86.09L349.303 82.46C351.283 85.1 353.849 87.1533 357.003 88.62C360.156 90.0133 363.713 90.71 367.673 90.71C369.873 90.71 371.889 90.49 373.723 90.05C375.556 89.5367 377.096 88.84 378.343 87.96C379.663 87.08 380.689 86.0167 381.423 84.77C382.156 83.45 382.523 81.9833 382.523 80.37C382.523 77.51 381.166 75.09 378.453 73.11C377.206 72.23 375.629 71.4233 373.723 70.69C371.816 69.9567 369.579 69.2233 367.013 68.49C363.126 67.3167 359.826 66.2167 357.113 65.19C354.399 64.1633 352.236 62.88 350.623 61.34C349.449 60.0933 348.569 58.7733 347.983 57.38C347.396 55.9133 347.103 54.3367 347.103 52.65C347.103 50.3033 347.579 48.1767 348.533 46.27C349.486 44.29 350.843 42.5667 352.603 41.1C354.363 39.6333 356.416 38.5333 358.763 37.8C361.109 36.9933 363.713 36.59 366.573 36.59C369.286 36.59 371.963 36.9933 374.603 37.8C377.243 38.5333 379.699 39.5967 381.973 40.99C384.246 42.3833 386.226 43.9967 387.913 45.83L384.173 49.9C382.706 48.2867 381.093 46.8567 379.333 45.61C377.646 44.3633 375.776 43.41 373.723 42.75C371.669 42.0167 369.396 41.65 366.903 41.65C364.923 41.65 363.053 41.9067 361.293 42.42C359.606 42.9333 358.139 43.7033 356.893 44.73C355.646 45.6833 354.656 46.82 353.923 48.14C353.263 49.3867 352.933 50.78 352.933 52.32C352.933 53.4933 353.153 54.5567 353.593 55.51C354.033 56.39 354.729 57.2333 355.683 58.04C356.929 59.0667 358.579 59.9467 360.633 60.68C362.759 61.4133 365.363 62.22 368.443 63.1C371.229 63.8333 373.686 64.5667 375.813 65.3C377.939 66.0333 379.773 66.9133 381.313 67.94C383.659 69.4067 385.383 71.13 386.483 73.11C387.656 75.09 388.243 77.3633 388.243 79.93C388.243 83.0833 387.363 85.87 385.603 88.29C383.843 90.71 381.386 92.6167 378.233 94.01C375.079 95.4033 371.449 96.1 367.343 96.1ZM426.359 96.1C420.639 96.1 415.543 94.8167 411.069 92.25C406.669 89.6833 403.186 86.1267 400.619 81.58C398.126 77.0333 396.879 71.8633 396.879 66.07C396.879 60.35 398.126 55.29 400.619 50.89C403.186 46.4167 406.669 42.9333 411.069 40.44C415.543 37.8733 420.639 36.59 426.359 36.59C432.079 36.59 437.139 37.8733 441.539 40.44C446.013 42.9333 449.496 46.4167 451.989 50.89C454.483 55.29 455.729 60.35 455.729 66.07C455.729 71.8633 454.483 77.0333 451.989 81.58C449.496 86.1267 446.013 89.6833 441.539 92.25C437.139 94.8167 432.079 96.1 426.359 96.1ZM426.359 90.6C430.906 90.6 434.939 89.5367 438.459 87.41C442.053 85.2833 444.839 82.3867 446.819 78.72C448.873 75.0533 449.899 70.8367 449.899 66.07C449.899 61.45 448.873 57.3433 446.819 53.75C444.839 50.0833 442.053 47.2233 438.459 45.17C434.939 43.1167 430.906 42.09 426.359 42.09C421.739 42.09 417.633 43.1167 414.039 45.17C410.519 47.2233 407.733 50.0833 405.679 53.75C403.699 57.3433 402.709 61.45 402.709 66.07C402.709 70.8367 403.699 75.0533 405.679 78.72C407.733 82.3867 410.519 85.2833 414.039 87.41C417.633 89.5367 421.739 90.6 426.359 90.6ZM467.459 95V13.6H472.959V95H467.459ZM510.956 96.1C505.75 96.1 501.093 94.8167 496.986 92.25C492.88 89.6833 489.616 86.1633 487.196 81.69C484.85 77.2167 483.676 72.12 483.676 66.4C483.676 60.6067 484.886 55.4733 487.306 51C489.8 46.5267 493.1 43.0067 497.206 40.44C501.313 37.8733 505.896 36.59 510.956 36.59C513.89 36.59 516.676 37.03 519.316 37.91C521.956 38.79 524.34 40.0367 526.466 41.65C528.593 43.19 530.426 45.0233 531.966 47.15C533.506 49.2767 534.606 51.5867 535.266 54.08L533.066 52.65L533.616 37.8H538.896V95H533.396V80.7L535.266 78.61C534.606 81.03 533.506 83.3033 531.966 85.43C530.426 87.5567 528.593 89.4267 526.466 91.04C524.34 92.6533 521.956 93.9 519.316 94.78C516.676 95.66 513.89 96.1 510.956 96.1ZM511.726 90.6C515.906 90.6 519.646 89.5733 522.946 87.52C526.32 85.3933 528.96 82.5333 530.866 78.94C532.846 75.2733 533.836 71.0567 533.836 66.29C533.836 61.5967 532.883 57.4533 530.976 53.86C529.07 50.1933 526.43 47.3333 523.056 45.28C519.756 43.1533 515.98 42.09 511.726 42.09C507.4 42.09 503.55 43.1533 500.176 45.28C496.876 47.3333 494.273 50.1933 492.366 53.86C490.46 57.4533 489.506 61.5967 489.506 66.29C489.506 70.91 490.423 75.0533 492.256 78.72C494.163 82.3867 496.766 85.2833 500.066 87.41C503.44 89.5367 507.326 90.6 511.726 90.6ZM563.693 95V22.51H569.193V95H563.693ZM549.943 42.86V37.8H584.593V42.86H549.943ZM617.867 96.1C612.367 96.1 607.453 94.8533 603.127 92.36C598.873 89.8667 595.537 86.3833 593.117 81.91C590.697 77.4367 589.487 72.23 589.487 66.29C589.487 61.9633 590.147 58.0033 591.467 54.41C592.86 50.8167 594.767 47.7 597.187 45.06C599.607 42.3467 602.503 40.2567 605.877 38.79C609.323 37.3233 613.063 36.59 617.097 36.59C621.057 36.59 624.613 37.25 627.767 38.57C630.993 39.89 633.707 41.7967 635.907 44.29C638.107 46.71 639.757 49.6067 640.857 52.98C641.957 56.28 642.433 59.9467 642.287 63.98L642.177 66.95H593.557V61.89H639.207L636.787 63.87V61.23C636.787 58.2967 636.053 55.3633 634.587 52.43C633.193 49.4967 631.03 47.04 628.097 45.06C625.163 43.08 621.46 42.09 616.987 42.09C612.807 42.09 609.067 43.0067 605.767 44.84C602.54 46.6733 599.973 49.35 598.067 52.87C596.233 56.39 595.317 60.7533 595.317 65.96C595.317 70.9467 596.233 75.31 598.067 79.05C599.9 82.7167 602.54 85.5767 605.987 87.63C609.507 89.61 613.797 90.6 618.857 90.6C621.57 90.6 624.357 90.16 627.217 89.28C630.077 88.4 633.303 86.4933 636.897 83.56L639.757 87.63C638.143 89.17 636.237 90.6 634.037 91.92C631.837 93.1667 629.38 94.1933 626.667 95C623.953 95.7333 621.02 96.1 617.867 96.1ZM211.88 205V128H217.38V205H211.88ZM215.29 169.14V163.64H253.46V169.14H215.29ZM215.18 133.5V128H258.85V133.5H215.18ZM271.409 205V147.8H276.689L277.239 160.56H276.469C277.276 158.14 278.522 155.867 280.209 153.74C281.896 151.613 283.949 149.89 286.369 148.57C288.862 147.25 291.722 146.59 294.949 146.59C296.196 146.59 297.332 146.7 298.359 146.92C299.459 147.067 300.449 147.25 301.329 147.47L299.679 153.85C298.652 153.41 297.662 153.117 296.709 152.97C295.756 152.823 294.912 152.75 294.179 152.75C291.246 152.75 288.679 153.263 286.479 154.29C284.352 155.317 282.556 156.747 281.089 158.58C279.696 160.34 278.632 162.357 277.899 164.63C277.239 166.903 276.909 169.287 276.909 171.78V205H271.409ZM331.828 206.1C326.108 206.1 321.011 204.817 316.538 202.25C312.138 199.683 308.655 196.127 306.088 191.58C303.595 187.033 302.348 181.863 302.348 176.07C302.348 170.35 303.595 165.29 306.088 160.89C308.655 156.417 312.138 152.933 316.538 150.44C321.011 147.873 326.108 146.59 331.828 146.59C337.548 146.59 342.608 147.873 347.008 150.44C351.481 152.933 354.965 156.417 357.458 160.89C359.951 165.29 361.198 170.35 361.198 176.07C361.198 181.863 359.951 187.033 357.458 191.58C354.965 196.127 351.481 199.683 347.008 202.25C342.608 204.817 337.548 206.1 331.828 206.1ZM331.828 200.6C336.375 200.6 340.408 199.537 343.928 197.41C347.521 195.283 350.308 192.387 352.288 188.72C354.341 185.053 355.368 180.837 355.368 176.07C355.368 171.45 354.341 167.343 352.288 163.75C350.308 160.083 347.521 157.223 343.928 155.17C340.408 153.117 336.375 152.09 331.828 152.09C327.208 152.09 323.101 153.117 319.508 155.17C315.988 157.223 313.201 160.083 311.148 163.75C309.168 167.343 308.178 171.45 308.178 176.07C308.178 180.837 309.168 185.053 311.148 188.72C313.201 192.387 315.988 195.283 319.508 197.41C323.101 199.537 327.208 200.6 331.828 200.6ZM372.708 205V147.8H377.988L378.538 159.9H377.878C378.684 157.48 380.151 155.28 382.278 153.3C384.404 151.247 386.934 149.633 389.868 148.46C392.874 147.213 396.028 146.59 399.328 146.59C403.361 146.59 406.771 147.433 409.558 149.12C412.418 150.807 414.544 153.41 415.938 156.93C417.404 160.45 418.138 164.923 418.138 170.35V205H412.638V170.57C412.638 166.317 412.051 162.833 410.878 160.12C409.778 157.333 408.128 155.28 405.928 153.96C403.728 152.567 400.978 151.87 397.678 151.87C394.818 151.87 392.214 152.383 389.868 153.41C387.521 154.363 385.468 155.683 383.708 157.37C381.948 159.057 380.591 161 379.638 163.2C378.684 165.327 378.208 167.6 378.208 170.02V205H375.458C375.384 205 375.128 205 374.688 205C374.321 205 373.661 205 372.708 205ZM442.736 205V132.51H448.236V205H442.736ZM428.986 152.86V147.8H463.636V152.86H428.986ZM476.107 205V147.8H481.607V205H476.107ZM478.857 135.81C477.244 135.81 475.997 135.37 475.117 134.49C474.237 133.61 473.797 132.4 473.797 130.86C473.797 129.393 474.237 128.22 475.117 127.34C475.997 126.387 477.244 125.91 478.857 125.91C480.47 125.91 481.717 126.35 482.597 127.23C483.477 128.11 483.917 129.32 483.917 130.86C483.917 132.327 483.477 133.537 482.597 134.49C481.717 135.37 480.47 135.81 478.857 135.81ZM524.088 206.1C518.588 206.1 513.674 204.853 509.348 202.36C505.094 199.867 501.758 196.383 499.338 191.91C496.918 187.437 495.708 182.23 495.708 176.29C495.708 171.963 496.368 168.003 497.688 164.41C499.081 160.817 500.988 157.7 503.408 155.06C505.828 152.347 508.724 150.257 512.098 148.79C515.544 147.323 519.284 146.59 523.318 146.59C527.278 146.59 530.834 147.25 533.988 148.57C537.214 149.89 539.928 151.797 542.128 154.29C544.328 156.71 545.978 159.607 547.078 162.98C548.178 166.28 548.654 169.947 548.508 173.98L548.398 176.95H499.778V171.89H545.428L543.008 173.87V171.23C543.008 168.297 542.274 165.363 540.808 162.43C539.414 159.497 537.251 157.04 534.318 155.06C531.384 153.08 527.681 152.09 523.208 152.09C519.028 152.09 515.288 153.007 511.988 154.84C508.761 156.673 506.194 159.35 504.288 162.87C502.454 166.39 501.538 170.753 501.538 175.96C501.538 180.947 502.454 185.31 504.288 189.05C506.121 192.717 508.761 195.577 512.208 197.63C515.728 199.61 520.018 200.6 525.078 200.6C527.791 200.6 530.578 200.16 533.438 199.28C536.298 198.4 539.524 196.493 543.118 193.56L545.978 197.63C544.364 199.17 542.458 200.6 540.258 201.92C538.058 203.167 535.601 204.193 532.888 205C530.174 205.733 527.241 206.1 524.088 206.1ZM559.622 205V147.8H564.902L565.452 160.56H564.682C565.488 158.14 566.735 155.867 568.422 153.74C570.108 151.613 572.162 149.89 574.582 148.57C577.075 147.25 579.935 146.59 583.162 146.59C584.408 146.59 585.545 146.7 586.572 146.92C587.672 147.067 588.662 147.25 589.542 147.47L587.892 153.85C586.865 153.41 585.875 153.117 584.922 152.97C583.968 152.823 583.125 152.75 582.392 152.75C579.458 152.75 576.892 153.263 574.692 154.29C572.565 155.317 570.768 156.747 569.302 158.58C567.908 160.34 566.845 162.357 566.112 164.63C565.452 166.903 565.122 169.287 565.122 171.78V205H559.622ZM616.132 206.1C611.145 206.1 606.708 205.147 602.822 203.24C598.935 201.26 595.965 198.877 593.912 196.09L598.092 192.46C600.072 195.1 602.638 197.153 605.792 198.62C608.945 200.013 612.502 200.71 616.462 200.71C618.662 200.71 620.678 200.49 622.512 200.05C624.345 199.537 625.885 198.84 627.132 197.96C628.452 197.08 629.478 196.017 630.212 194.77C630.945 193.45 631.312 191.983 631.312 190.37C631.312 187.51 629.955 185.09 627.242 183.11C625.995 182.23 624.418 181.423 622.512 180.69C620.605 179.957 618.368 179.223 615.802 178.49C611.915 177.317 608.615 176.217 605.902 175.19C603.188 174.163 601.025 172.88 599.412 171.34C598.238 170.093 597.358 168.773 596.772 167.38C596.185 165.913 595.892 164.337 595.892 162.65C595.892 160.303 596.368 158.177 597.322 156.27C598.275 154.29 599.632 152.567 601.392 151.1C603.152 149.633 605.205 148.533 607.552 147.8C609.898 146.993 612.502 146.59 615.362 146.59C618.075 146.59 620.752 146.993 623.392 147.8C626.032 148.533 628.488 149.597 630.762 150.99C633.035 152.383 635.015 153.997 636.702 155.83L632.962 159.9C631.495 158.287 629.882 156.857 628.122 155.61C626.435 154.363 624.565 153.41 622.512 152.75C620.458 152.017 618.185 151.65 615.692 151.65C613.712 151.65 611.842 151.907 610.082 152.42C608.395 152.933 606.928 153.703 605.682 154.73C604.435 155.683 603.445 156.82 602.712 158.14C602.052 159.387 601.722 160.78 601.722 162.32C601.722 163.493 601.942 164.557 602.382 165.51C602.822 166.39 603.518 167.233 604.472 168.04C605.718 169.067 607.368 169.947 609.422 170.68C611.548 171.413 614.152 172.22 617.232 173.1C620.018 173.833 622.475 174.567 624.602 175.3C626.728 176.033 628.562 176.913 630.102 177.94C632.448 179.407 634.172 181.13 635.272 183.11C636.445 185.09 637.032 187.363 637.032 189.93C637.032 193.083 636.152 195.87 634.392 198.29C632.632 200.71 630.175 202.617 627.022 204.01C623.868 205.403 620.238 206.1 616.132 206.1Z" fill="#DBE2E9"/>
<path fill-rule="evenodd" clip-rule="evenodd" d="M100 9L0 109L100 209L150 159L200 109L100 9ZM100 25.6667L16.6667 109L100 192.333L183.333 109L100 25.6667Z" fill="#8A2B2B"/>
<path fill-rule="evenodd" clip-rule="evenodd" d="M16.6667 109L100 25.6667L183.333 109L100 192.333L16.6667 109Z" fill="#393D47"/>
<path d="M149.191 87C149.877 87 150.567 87.1838 151.193 87.5488L160.193 92.7979L176.197 108.803L158.288 126.711L163.614 112.232L160.365 116.816C159.539 113.493 156.171 113.56 153.734 112.161C148.168 108.962 153.111 100.929 149.768 96.1777C149.116 95.2524 148.563 93.6266 148.197 92.5176C145.26 93.9817 142.294 95.5266 139.339 97.0439L144.291 96.209L137.839 101.673C143.136 110.334 148.377 121.063 153.19 131.81L124.964 160.035C123.861 158.592 122.692 157.221 121.877 155.508C119.878 151.303 119.199 146.833 120.07 142.417L116.966 144.59L123.288 136.265L126.086 132.477C126.958 131.468 127.774 130.426 128.374 129.376L134.124 121.59L129.357 126.151C129.333 124.758 128.625 123.397 126.82 122.128C125.355 121.096 123.46 120.962 121.939 120.127L118.587 126.126L120.234 115.887C120.384 114.872 120.545 113.828 120.712 112.767C121.139 110.069 121.552 107.35 121.792 105.304C122.036 103.277 122.137 101.918 122.139 101.895C122.132 101.918 121.765 103.22 121.131 105.116C120.903 105.803 120.63 106.585 120.341 107.397C119.45 105.541 117.412 104.759 117.013 102.516C116.678 100.617 117.855 94.331 119.236 93.1113C108.459 102.603 97.5268 111.982 86.2755 120.761L105.203 107.405L87.3224 128.133C95.6149 141.702 105.681 156.26 115.938 169.062L99.8029 185.197L52.0685 137.464L52.6749 136.381C53.4325 134.431 54.5875 131.667 55.9825 128.995C58.4422 124.101 61.6437 119.653 61.6437 119.653C61.6437 119.653 57.7813 123.117 54.3693 127.361C54.3889 127.162 54.417 126.967 54.4249 126.762C54.5351 124.098 54.1054 121.366 53.0802 118.957C50.8962 123.085 48.5002 127.251 45.9747 131.37L42.4337 127.828L49.8224 116.776C50.6488 115.539 51.9375 114.819 53.3009 114.819C53.3757 114.819 53.4527 114.821 53.5294 114.825L81.5294 116.48L118.151 87.874C118.894 87.292 119.762 87 120.632 87C121.397 87.0001 122.167 87.2288 122.854 87.6885L133.418 94.7568L147.357 87.458C147.939 87.1522 148.565 87 149.191 87Z" fill="#F3D54E"/>
<path d="M100.009 35.5117C100.293 35.5415 100.636 35.6426 100.752 35.7021C100.822 35.7455 100.93 35.8235 100.971 35.8564C101.042 35.9168 101.093 35.9712 101.109 35.9893C101.15 36.0338 101.182 36.0737 101.195 36.0898C101.227 36.1295 101.259 36.1725 101.285 36.208C101.341 36.2839 101.415 36.3883 101.502 36.5127C101.678 36.7641 101.93 37.1293 102.245 37.5879C102.876 38.5066 103.769 39.8175 104.835 41.3896C106.969 44.5352 109.803 48.7339 112.638 52.9453C115.473 57.1568 118.31 61.3833 120.448 64.584C121.517 66.1838 122.413 67.5294 123.047 68.4893C123.363 68.9686 123.617 69.3549 123.795 69.6299C123.883 69.7666 123.957 69.8811 124.011 69.9678C124.037 70.0102 124.064 70.0542 124.087 70.0938C124.098 70.113 124.114 70.1401 124.13 70.1699C124.136 70.1811 124.182 70.2646 124.222 70.3711C124.399 70.8451 124.479 71.5274 124.48 72.0195C124.487 73.8538 123.471 75.4341 121.858 76.292C121.577 76.4418 121.277 76.5668 120.878 76.6338C120.542 76.6902 120.175 76.6977 119.785 76.6982L118.845 76.6992H118.571L118.315 76.6035L113.354 74.7432C112.208 74.3133 111.145 73.917 110.297 73.6016C110.286 74.189 110.275 74.8673 110.267 75.5889C110.23 78.6019 110.179 80.0297 110.041 80.9326C108.565 90.6032 101.618 98.2021 92.165 100.457C90.7903 100.785 88.6261 101.06 87.3428 101.06C86.6736 101.06 86.218 101.141 85.8662 101.273C85.526 101.402 85.2059 101.606 84.8477 101.962C83.9557 102.848 83.7329 104.083 84.2881 105.266C84.3479 105.393 84.5425 105.672 84.8506 105.984C85.1632 106.302 85.4226 106.481 85.5156 106.524C85.5156 106.524 85.543 106.537 85.6182 106.569C85.686 106.598 85.7778 106.637 85.8926 106.685C86.1219 106.781 86.4368 106.911 86.8262 107.072C87.6046 107.394 88.6751 107.834 89.9434 108.355C92.4779 109.397 95.8045 110.762 99.1543 112.139C105.8 114.871 112.699 117.719 113.611 118.177C120.612 121.69 125.359 128.443 126.37 136.292C126.462 137.006 126.501 138.125 126.5 139.175C126.499 140.223 126.46 141.338 126.366 142.04C125.26 150.355 120.117 157.253 112.489 160.635C111.741 160.967 111.323 161.219 111.046 161.454C110.796 161.667 110.605 161.911 110.4 162.326L110.178 162.776L110.132 167.699L110.083 172.964L110.068 174.445L108.587 174.449L99.8447 174.475L91.1035 174.5L89.5898 174.504L89.5986 172.991L89.6348 166.963C89.6681 161.264 89.6727 160.782 89.9209 159.514C90.3821 157.158 91.0021 155.268 91.9883 153.241C93.1676 150.817 94.5625 148.877 96.5039 146.955C98.727 144.754 101.023 143.205 103.917 141.948C105.208 141.388 105.784 140.631 105.979 139.569C106.17 138.522 105.593 137.254 104.684 136.713C104.733 136.742 104.692 136.717 104.421 136.598C104.2 136.5 103.89 136.367 103.503 136.202C102.729 135.874 101.661 135.427 100.391 134.899C97.85 133.844 94.5138 132.47 91.1416 131.081C84.4469 128.324 77.4911 125.46 76.5078 124.98C75.0183 124.254 73.3861 123.216 72.1133 122.185C71.599 121.768 70.8374 121.037 70.1504 120.336C69.4676 119.639 68.7616 118.875 68.3838 118.378C65.8396 115.032 64.1994 111.067 63.6377 106.904C63.5408 106.186 63.5 105.009 63.5 103.919C63.5 102.834 63.5402 101.668 63.6396 100.981C64.6482 94.0173 68.2656 88.2092 74.0078 84.3887C76.3425 82.8354 79.455 81.5548 82.2842 80.9746C83.1036 80.8066 84.3289 80.6596 85.3896 80.5947C86.3316 80.5371 87.2397 80.4527 87.4336 80.4189C88.4759 80.237 89.4526 79.3043 89.6943 78.1396C89.6863 78.1782 89.697 78.1282 89.7109 77.9053C89.7228 77.7149 89.7339 77.4575 89.7432 77.1396C89.7616 76.5056 89.7725 75.6618 89.7725 74.6865C89.7725 74.2647 89.7703 73.9019 89.7695 73.5898C88.8994 73.9144 87.7922 74.3294 86.6035 74.7764L81.752 76.6006L81.498 76.6963H81.2266L80.2861 76.6982C79.6694 76.699 79.0609 76.6499 78.4648 76.4258C77.8508 76.1949 77.3817 75.8282 76.957 75.415C76.296 74.7719 75.8734 73.9254 75.6729 73.0889C75.4728 72.2541 75.4638 71.3047 75.7773 70.4346C75.8172 70.3241 75.8639 70.2384 75.8701 70.2266C75.8868 70.195 75.9024 70.1666 75.9141 70.1465C75.9379 70.1053 75.9655 70.0608 75.9922 70.0176C76.0468 69.9293 76.1205 69.8133 76.209 69.6758C76.3871 69.399 76.6407 69.0109 76.957 68.5303C77.5906 67.5677 78.485 66.2192 79.5527 64.6172C81.6887 61.4125 84.5221 57.1833 87.3545 52.9688C90.1869 48.754 93.0202 44.5517 95.1543 41.4023C96.2209 39.8283 97.1148 38.5148 97.7471 37.5938C98.0626 37.1341 98.3152 36.7677 98.4932 36.5146C98.5812 36.3895 98.6568 36.2844 98.7139 36.207C98.7406 36.1707 98.7736 36.1261 98.8066 36.085C98.8204 36.0678 98.8533 36.0276 98.8955 35.9824C98.9136 35.9631 98.9629 35.911 99.0312 35.8535C99.0686 35.8231 99.165 35.7528 99.2266 35.7139C99.3342 35.6551 99.6652 35.5377 99.8916 35.5039L100.009 35.5117Z" fill="#DBE2E9" stroke="#393D47" stroke-width="3"/>
</svg>
